<?xml version="1.0" encoding="utf-8"?>
<!-- Generator: Adobe Illustrator 16.0.0, SVG Export Plug-In . SVG Version: 6.00 Build 0)  -->
<svg version="1.2" baseProfile="tiny" id="Layer_1" xmlns="http://www.w3.org/2000/svg" xmlns:xlink="http://www.w3.org/1999/xlink"
	 x="0px" y="0px" width="500px" height="500px" viewBox="0 0 500 500" xml:space="preserve">
<path id="Bottom_right_4_" fill="#979F9E" stroke="#979F9E" stroke-width="4" stroke-miterlimit="10" d="M315.896,294.984
	c-0.384,0.213-0.771,0.426-1.157,0.636c-3.191,1.733-6.511,3.374-9.972,4.913c-0.377,0.168-0.755,0.333-1.136,0.5
	c-1.754,0.762-3.532,1.504-5.362,2.213c1.896,4.759,6.125,11.364,11.18,18.461c43.545-32.313,79.047-68.201,103.086-94.131
	c-12.373,10.375-75.367,54.662-92.023,64.746C319.007,293.234,317.462,294.116,315.896,294.984z"/>
<path id="Bottom_left_4_" fill="#979F9E" stroke="#979F9E" stroke-width="4" stroke-miterlimit="10" d="M250.621,313.76
	c-0.116,0.01-0.228,0.023-0.343,0.033c-40.3,3.34-119.834-11.93-119.834-11.93c-34.2,1.433-98.442-12.403-123.029-17.402
	c5.06,27.114,14.611,50.725,26.684,64.186c9.453,10.54,108.528,49.17,128.526,44.704c37.899-8.464,73.616-24.604,106.105-44.222
	C259.885,336.25,254.273,323.673,250.621,313.76z"/>
<path id="Top_7_" fill="#4C5265" stroke="#4C5265" stroke-width="4" stroke-linecap="square" stroke-miterlimit="10" d="
	M491.092,146.831c-11.838-7.69-34.174,23.016-38.924,20.696c-4.75-2.318,8.172-40.128-5.803-43.95
	c-12.711-3.478-19.037,15.746-21.313,24.693c-2.277,8.947-4.641,36.235-12.805,43.373c-22.568,19.739-86.34-0.153-131.664-19.332
	c-23.807-10.073-90.651-50.913-137.827-47.81c-14.87,0.979-105.281,14.625-113.625,25.457C3.074,183.786-1.063,239.04,7.416,284.461
	c24.586,4.999,88.829,18.835,123.029,17.402c0,0,79.534,15.27,119.834,11.93c0.115-0.01,0.227-0.023,0.343-0.033
	c5.414,14.693,15.099,35.238,33.309,53.95c10.863,11.164,18.521,14.651,28.629,16.223c7.676,1.192,19.513-1.976,23.857-5.248
	c5.438-4.097,6.365-9.036,2.863-16.7c-3.502-7.661-34.79-43.122-41.01-58.738c8.111-3.14,15.471-6.825,22.242-10.924
	c16.656-10.084,79.65-54.372,92.023-64.746c7.459-8.046,14.547-15.199,20.584-19.979c7.432-5.883,30.139-17.004,49.053-29.926
	C496.092,168.162,502.836,154.462,491.092,146.831z"/>
<ellipse id="Eye_6_" fill="#393C51" cx="198.937" cy="211.61" rx="9.353" ry="11.004"/>
<path id="Divider_6_" fill="none" stroke="#393C51" stroke-width="4" stroke-linecap="round" stroke-miterlimit="10" d="
	M162.625,393.351c-36.948-62.54-56.866-190.78-19.868-268.849"/>
</svg>
